<svg xmlns="http://www.w3.org/2000/svg" width="20" height="20" viewBox="0 0 20 20" fill="none">
            <path d="M18.3334 9.99984C18.3334 14.6022 14.6024 18.3332 10 18.3332C5.39765 18.3332 1.66669 14.6022 1.66669 9.99984C1.66669 5.39746 5.39765 1.6665 10 1.6665C14.6024 1.6665 18.3334 5.39746 18.3334 9.99984Z" stroke="#5B5B5B" stroke-width="1.5" />
            <path d="M12.5 11.6665C12.5 12.587 11.7538 13.3332 10.8333 13.3332H10C9.22343 13.3332 8.83515 13.3332 8.52886 13.2063C8.12048 13.0371 7.79602 12.7127 7.62687 12.3043C7.5 11.998 7.5 11.6097 7.5 10.8332V9.1665C7.5 8.38993 7.5 8.00165 7.62687 7.69536C7.79602 7.28698 8.12048 6.96253 8.52886 6.79337C8.83515 6.6665 9.22343 6.6665 10 6.6665H10.8333C11.7538 6.6665 12.5 7.4127 12.5 8.33317" stroke="#5B5B5B" stroke-width="1.5" stroke-linecap="round" />
          </svg>