<svg xmlns="http://www.w3.org/2000/svg" width="137" height="36" viewBox="0 0 137 36" fill="none">
  <path d="M47.9469 5.84232V9.06447H52.5974V10.9835H47.9509V15.9345H45.7363V3.82031H53.4773V5.84232H47.9469Z" fill="#040E23"/>
  <path d="M55.154 5.45425C55.0194 5.32434 54.9131 5.16785 54.842 4.99467C54.7708 4.82149 54.7364 4.6354 54.7408 4.44819C54.7355 4.26087 54.7696 4.07453 54.8408 3.90123C54.9119 3.72793 55.0187 3.57153 55.154 3.44214C55.2963 3.30946 55.4633 3.20618 55.6455 3.13822C55.8277 3.07026 56.0215 3.03894 56.2158 3.04606C56.4078 3.0384 56.5993 3.06953 56.779 3.13757C56.9587 3.20562 57.1229 3.3092 57.2618 3.44214C57.393 3.57372 57.4959 3.73093 57.5639 3.904C57.6319 4.07707 57.6637 4.26231 57.6572 4.44819C57.6586 4.63264 57.6228 4.81546 57.5517 4.98564C57.4807 5.15582 57.376 5.30983 57.244 5.43841C57.1094 5.5746 56.9484 5.68177 56.7709 5.75329C56.5934 5.82481 56.4031 5.85919 56.2119 5.85429C56.0178 5.86168 55.8242 5.83009 55.6426 5.76138C55.4609 5.69268 55.2948 5.58825 55.154 5.45425ZM55.154 7.51389H57.2657V15.9406H55.154V7.51389Z" fill="#040E23"/>
  <path d="M59.6074 2.9707H61.7172V15.9405H59.6074V2.9707Z" fill="#040E23"/>
  <path d="M76.1495 8.08649C76.7071 8.64629 76.9865 9.41206 76.9879 10.3838V15.9408H74.8959V10.8928C74.8959 10.2986 74.7516 9.83719 74.4668 9.53616C74.32 9.38395 74.1425 9.26478 73.9461 9.18658C73.7498 9.10839 73.539 9.07296 73.3279 9.08265C73.0858 9.06966 72.8438 9.11111 72.6197 9.20398C72.3956 9.29685 72.1951 9.43877 72.0328 9.61934C71.7184 10.0024 71.5564 10.4884 71.5781 10.9838V15.9349H69.494V10.8928C69.5228 10.4109 69.3681 9.93599 69.061 9.56389C68.9102 9.40201 68.7258 9.27508 68.5209 9.19195C68.316 9.10883 68.0954 9.07153 67.8746 9.08265C67.6403 9.07374 67.4071 9.11812 67.1924 9.21245C66.9777 9.30677 66.7871 9.44859 66.6349 9.62726C66.3192 10.0071 66.1539 10.4899 66.1702 10.9838V15.9349H64.0645V7.51415H65.9903L66.101 8.4192C66.363 8.0477 66.7174 7.75137 67.1292 7.5597C67.561 7.35178 68.0342 7.24479 68.5133 7.24679C69.091 7.23728 69.6606 7.38367 70.1623 7.6706C70.6287 7.93407 70.9971 8.342 71.2123 8.83311C71.4518 8.34374 71.8301 7.93595 72.2998 7.6607C72.8033 7.37751 73.3734 7.23459 73.9508 7.24679C74.355 7.2297 74.7585 7.29534 75.1365 7.43972C75.5146 7.5841 75.8593 7.80417 76.1495 8.08649Z" fill="#040E23"/>
  <path d="M91.3195 8.08682C91.8797 8.64662 92.1592 9.41239 92.1579 10.3841V15.9412H90.0659V10.8931C90.0659 10.2897 89.9229 9.83752 89.6369 9.53649C89.4903 9.38443 89.3132 9.26534 89.1171 9.18715C88.9211 9.10896 88.7107 9.07344 88.4999 9.08298C88.2567 9.0688 88.0135 9.10968 87.7883 9.2026C87.563 9.29551 87.3616 9.43807 87.1989 9.61967C86.8795 10.0006 86.7132 10.4871 86.7323 10.9842V15.9352H84.664V10.8931C84.6934 10.4115 84.5393 9.93661 84.233 9.56422C84.0821 9.40234 83.8978 9.27541 83.6929 9.19228C83.488 9.10916 83.2674 9.07186 83.0466 9.08298C82.8123 9.07407 82.5791 9.11845 82.3644 9.21278C82.1496 9.3071 81.9591 9.44892 81.8069 9.62759C81.4912 10.0075 81.3259 10.4902 81.3422 10.9842V15.9352H79.2266V7.51448H81.1544L81.2651 8.41953C81.5258 8.04766 81.8798 7.7512 82.2913 7.56003C82.7231 7.35211 83.1963 7.24512 83.6754 7.24712C84.2531 7.23741 84.8228 7.38381 85.3244 7.67093C85.7913 7.93384 86.1599 8.34194 86.3744 8.83344C86.6139 8.34407 86.9922 7.93628 87.4619 7.66103C87.9654 7.37784 88.5355 7.23492 89.1129 7.24712C89.5184 7.22894 89.9234 7.29405 90.3029 7.43845C90.6824 7.58286 91.0283 7.80351 91.3195 8.08682Z" fill="#040E23"/>
  <path d="M102.949 7.51439V15.9411H100.931V14.7528C100.623 15.2124 100.194 15.5772 99.6909 15.8064C99.1281 16.0732 98.5122 16.2087 97.8896 16.2025C97.1588 16.2137 96.4393 16.021 95.8115 15.646C95.2032 15.276 94.7149 14.7374 94.4057 14.0953C94.0621 13.3674 93.8922 12.5694 93.9094 11.7644C93.8919 10.9416 94.0716 10.1267 94.4334 9.38787C94.7604 8.72835 95.2714 8.178 95.9045 7.80353C96.5651 7.42226 97.3172 7.22914 98.0794 7.24505C98.674 7.23564 99.2635 7.35522 99.8076 7.59558C100.297 7.80907 100.719 8.15125 101.03 8.58579L101.196 7.51439H102.949ZM100.144 13.5606C100.602 13.0466 100.842 12.3737 100.812 11.6852C100.844 11.0066 100.611 10.3422 100.162 9.83346C99.6972 9.38472 99.0766 9.13477 98.4314 9.13662C97.7861 9.13847 97.167 9.39197 96.7052 9.84336C96.2574 10.3561 96.025 11.0225 96.0567 11.703C96.0259 12.3862 96.2605 13.0548 96.7112 13.5685C96.9273 13.8031 97.1915 13.9881 97.4857 14.1108C97.7799 14.2335 98.0971 14.2911 98.4156 14.2795C98.7382 14.2905 99.0594 14.232 99.3576 14.108C99.6557 13.984 99.9238 13.7973 100.144 13.5606Z" fill="#040E23"/>
  <path d="M110.288 10.633L113.135 15.9405H110.763L108.785 12.1935L107.356 13.665V15.9405H105.246V2.9707H107.356V11.0904L110.684 7.52567H113.282L110.288 10.633Z" fill="#040E23"/>
  <path d="M120.877 15.3965C120.082 15.938 119.137 16.2151 118.176 16.1887C117.376 16.2057 116.586 16.0102 115.886 15.6223C115.234 15.251 114.7 14.7015 114.348 14.0379C113.97 13.3123 113.781 12.5032 113.798 11.6852C113.779 10.8698 113.971 10.0634 114.356 9.34432C114.713 8.69215 115.247 8.15453 115.896 7.79365C116.578 7.42082 117.344 7.23178 118.12 7.24508C118.878 7.22949 119.627 7.40883 120.295 7.76593C120.906 8.0951 121.412 8.58908 121.757 9.19183C122.109 9.82659 122.287 10.5433 122.273 11.2693C122.279 11.6195 122.248 11.9694 122.18 12.313H115.87C115.871 12.6025 115.93 12.8888 116.045 13.1544C116.16 13.42 116.328 13.6593 116.539 13.8577C116.985 14.262 117.572 14.4752 118.174 14.4518C118.627 14.4641 119.076 14.3612 119.479 14.1528C119.823 13.9756 120.09 13.6783 120.23 13.317H122.285C122.105 14.1679 121.6 14.9144 120.877 15.3965ZM120.121 10.893C120.128 10.6311 120.078 10.3709 119.976 10.1298C119.873 9.88871 119.721 9.67223 119.528 9.49483C119.122 9.14212 118.596 8.95858 118.059 8.98191C117.505 8.96109 116.962 9.14664 116.537 9.50276C116.339 9.67577 116.18 9.88878 116.071 10.1277C115.961 10.3667 115.904 10.6262 115.902 10.8891L120.121 10.893Z" fill="#040E23"/>
  <path d="M128.986 7.51375V9.32187C128.758 9.29811 128.592 9.28623 128.488 9.28623C127.733 9.28623 127.151 9.49681 126.742 9.91798C126.334 10.3392 126.129 10.9333 126.129 11.7004V15.9404H124.02V7.51375H125.926L126.111 8.72379C126.224 8.31781 126.492 7.97267 126.857 7.76328C127.264 7.53332 127.726 7.41833 128.194 7.43057C128.46 7.43546 128.725 7.46329 128.986 7.51375Z" fill="#040E23"/>
  <path d="M130.945 15.447C130.63 15.2188 130.372 14.9219 130.189 14.5787C130.007 14.2356 129.904 13.8552 129.891 13.4666H131.965C131.969 13.6322 132.012 13.7945 132.09 13.9403C132.168 14.0862 132.28 14.2116 132.416 14.3063C132.729 14.515 133.1 14.619 133.475 14.6034C133.826 14.6241 134.176 14.537 134.476 14.3538C134.591 14.2736 134.684 14.1654 134.746 14.0393C134.808 13.9132 134.837 13.7733 134.83 13.633C134.84 13.5125 134.819 13.3915 134.77 13.281C134.721 13.1706 134.645 13.0744 134.549 13.0012C134.327 12.8544 134.077 12.7553 133.815 12.7101L132.398 12.3694C131.607 12.1912 131.024 11.8908 130.65 11.4684C130.279 11.0506 130.08 10.508 130.092 9.94937C130.081 9.57097 130.16 9.19527 130.322 8.85355C130.485 8.51182 130.727 8.21397 131.028 7.9848C131.652 7.49101 132.462 7.24478 133.458 7.2461C134.453 7.24742 135.258 7.49365 135.872 7.9848C136.168 8.21519 136.409 8.51024 136.575 8.84755C136.74 9.18486 136.827 9.55557 136.829 9.93155H134.757C134.762 9.77969 134.731 9.62882 134.666 9.49118C134.602 9.35355 134.506 9.23302 134.387 9.13938C134.109 8.9307 133.767 8.82565 133.42 8.84232C133.114 8.82685 132.81 8.90938 132.554 9.07799C132.449 9.15392 132.364 9.2549 132.308 9.37178C132.252 9.48866 132.226 9.61775 132.232 9.74737C132.22 9.85948 132.237 9.97272 132.28 10.0768C132.323 10.1809 132.391 10.2726 132.479 10.3435C132.708 10.4813 132.959 10.579 133.22 10.6326L134.842 11.003C135.573 11.1812 136.116 11.4842 136.469 11.912C136.824 12.3439 137.012 12.8894 136.999 13.4488C137.012 13.8334 136.933 14.2157 136.768 14.5634C136.603 14.9111 136.358 15.2141 136.052 15.447C135.415 15.9434 134.562 16.1923 133.493 16.1936C132.449 16.191 131.6 15.9421 130.945 15.447Z" fill="#040E23"/>
  <path d="M85.1763 20.3272V32.4474H83.0013V29.7422C83.0013 28.241 83.0672 26.7227 83.199 25.1872L80.1402 32.1008H78.1629L75.2306 25.2426C75.373 26.8164 75.4435 28.3143 75.4422 29.7362V32.4415H73.2969V20.3213H75.3058L79.205 29.6451L83.1773 20.3213L85.1763 20.3272Z" fill="#040E23"/>
  <path d="M96.1826 24.019V32.4476H94.1638V31.2594C93.8564 31.7187 93.427 32.0829 92.9241 32.311C92.3615 32.5784 91.7455 32.7138 91.1228 32.7071C90.3927 32.7209 89.6731 32.531 89.0447 32.1585C88.4364 31.7885 87.9481 31.2499 87.6389 30.6078C87.3059 29.8686 87.1359 29.0661 87.1407 28.255C87.1455 27.444 87.3248 26.6436 87.6665 25.9083C87.9937 25.2495 88.5038 24.6993 89.1356 24.324C89.7965 23.9434 90.5485 23.7503 91.3106 23.7655C91.9054 23.7561 92.4951 23.8764 93.0388 24.118C93.527 24.333 93.9489 24.6749 94.2607 25.1082L94.4248 24.0368L96.1826 24.019ZM93.3749 30.0672C93.8336 29.5534 94.0734 28.8803 94.0432 28.1917C94.0761 27.514 93.8433 26.8503 93.3947 26.342C92.9314 25.8924 92.3116 25.641 91.6665 25.641C91.0215 25.641 90.4017 25.8924 89.9384 26.342C89.516 26.8706 89.2858 27.5275 89.2858 28.2046C89.2858 28.8817 89.516 29.5386 89.9384 30.0672C90.1544 30.3019 90.4186 30.4871 90.7128 30.6098C91.007 30.7325 91.3243 30.79 91.6428 30.7782C91.9655 30.791 92.2873 30.7341 92.5861 30.6114C92.885 30.4888 93.154 30.3032 93.3749 30.0672Z" fill="#040E23"/>
  <path d="M103.445 24.0188V25.8289C103.218 25.8051 103.05 25.7913 102.947 25.7913C102.192 25.7913 101.61 26.0025 101.201 26.425C100.793 26.8475 100.588 27.4416 100.588 28.2074V32.4435H98.4707V24.0188H100.379L100.563 25.2288C100.676 24.8226 100.944 24.4775 101.31 24.2683C101.717 24.0384 102.179 23.9241 102.647 23.9376C102.915 23.9425 103.182 23.9697 103.445 24.0188Z" fill="#040E23"/>
  <path d="M109.776 25.7547H108.172V32.4465H106.061V25.7547H104.457V24.0178H106.061V21.8037H108.172V24.0178H109.776V25.7547Z" fill="#040E23"/>
  <path d="M17.8063 9.59375C16.33 9.59532 14.9147 10.1834 13.8708 11.2289C12.827 12.2744 12.2399 13.692 12.2383 15.1706C12.2385 16.2949 12.3868 17.4142 12.6792 18.4997C14.0629 18.4375 15.373 17.858 16.351 16.8758C16.3886 16.8381 16.4281 16.7985 16.4657 16.7569C16.5392 16.663 16.622 16.5768 16.7128 16.4995C17.0536 16.2124 17.4934 16.0711 17.9373 16.1059C18.3811 16.1407 18.7936 16.349 19.0856 16.6856L19.1034 16.7054C19.4176 17.0884 19.842 17.3652 20.3189 17.498C20.7957 17.6308 21.3018 17.6132 21.7684 17.4476C22.2349 17.2821 22.6391 16.9766 22.9261 16.5727C23.2131 16.1688 23.3689 15.6861 23.3723 15.1904C23.3717 15.1838 23.3717 15.1772 23.3723 15.1706C23.3707 13.6924 22.7838 12.2751 21.7404 11.2296C20.697 10.1841 19.2822 9.59585 17.8063 9.59375Z" fill="#FF6029"/>
  <path d="M17.8073 0C14.2852 2.17466e-08 10.8423 1.04609 7.91388 3.00599C4.98545 4.96589 2.70305 7.75155 1.35532 11.0107C0.00758444 14.2699 -0.344943 17.8561 0.342314 21.316C1.02957 24.7758 2.72574 27.9538 5.21633 30.4481C7.70692 32.9424 10.8801 34.6409 14.3345 35.3289C17.7889 36.0168 21.3694 35.6634 24.6232 34.3131C27.877 32.9629 30.658 30.6765 32.6144 27.7432C34.5709 24.8099 35.6149 21.3613 35.6145 17.8337C35.6088 13.1053 33.7307 8.57231 30.3924 5.22903C27.0541 1.88576 22.5281 0.0052409 17.8073 0V0ZM20.9709 20.9786C19.8643 20.9809 18.7804 20.6639 17.8488 20.0656C16.734 20.9153 15.4358 21.4912 14.0584 21.747C15.0085 23.3413 16.2897 24.7123 17.8152 25.7673C18.0524 25.6029 18.2858 25.4326 18.5092 25.2543C18.6842 25.1164 18.8846 25.0143 19.099 24.9539C19.3134 24.8935 19.5376 24.876 19.7588 24.9024C19.9799 24.9288 20.1937 24.9985 20.388 25.1077C20.5822 25.2168 20.7531 25.3632 20.8908 25.5385C21.0286 25.7138 21.1305 25.9146 21.1908 26.1293C21.2511 26.344 21.2685 26.5686 21.2422 26.7901C21.2158 27.0116 21.1462 27.2257 21.0372 27.4203C20.9282 27.6148 20.7821 27.786 20.6071 27.9239C19.99 28.4133 19.3384 28.8574 18.6575 29.2528C18.3996 29.4019 18.107 29.4804 17.8092 29.4804C17.5114 29.4804 17.2189 29.4019 16.961 29.2528C13.9533 27.4972 11.5825 24.8271 10.1928 21.6302C8.63624 21.2334 7.21539 20.4233 6.0801 19.2853C5.761 18.967 5.58121 18.5348 5.58029 18.0838C5.57983 17.8604 5.62329 17.6392 5.7082 17.4326C5.79311 17.2261 5.91781 17.0384 6.07516 16.8801C6.23251 16.7219 6.41944 16.5962 6.62528 16.5103C6.83112 16.4244 7.05184 16.38 7.27483 16.3795C7.72518 16.3786 8.15745 16.5569 8.47655 16.8752C8.63954 17.0397 8.81326 17.1932 8.99657 17.3346C8.89963 16.6172 8.85075 15.894 8.85025 15.17C8.85077 12.7908 9.79463 10.5093 11.4743 8.82693C13.1539 7.1446 15.4319 6.19924 17.8073 6.19872C20.1654 6.20581 22.4262 7.14142 24.1017 8.80358C25.7771 10.4657 26.7327 12.7211 26.7623 15.0829C26.7623 15.1086 26.7623 15.1344 26.7623 15.1621C26.7623 16.7037 26.1513 18.1823 25.0635 19.2729C23.9757 20.3635 22.5002 20.977 20.961 20.9786H20.9709Z" fill="#FF6029"/>
</svg>