<svg width="254" height="104" viewBox="0 0 254 104" fill="none" xmlns="http://www.w3.org/2000/svg">
<g clip-path="url(#clip0_727_114)">
<path d="M51.8235 27.873C47.5265 27.8778 43.4069 29.5868 40.3685 32.6252C37.3301 35.6637 35.621 39.7833 35.6163 44.0802C35.6181 47.3449 36.0505 50.5951 36.9024 53.7467C40.927 53.5685 44.7387 51.8883 47.5854 49.0377L47.9199 48.6935C48.1318 48.4182 48.3724 48.1662 48.6376 47.9416C49.6313 47.1055 50.9139 46.6935 52.2086 46.7946C53.5034 46.8958 54.7065 47.502 55.5582 48.4824L55.6102 48.5424C56.5258 49.6544 57.7617 50.4575 59.1497 50.8425C60.5377 51.2275 62.0106 51.1757 63.3682 50.6943C64.7258 50.2128 65.9022 49.325 66.7376 48.1515C67.5729 46.9781 68.0267 45.5758 68.0372 44.1354C68.0353 44.1171 68.0353 44.0986 68.0372 44.0802C68.0324 39.7821 66.3225 35.6615 63.2827 32.623C60.2429 29.5844 56.1216 27.8761 51.8235 27.873Z" fill="#FF6029"/>
<path d="M51.8237 -0.00195312C23.248 -0.00195312 0 23.246 0 51.8217C0 80.3974 23.248 103.645 51.8237 103.645C80.3994 103.645 103.647 80.3974 103.647 51.8217C103.647 23.246 80.3994 -0.00195312 51.8237 -0.00195312ZM61.0225 60.9573C57.8 60.9644 54.6434 60.0445 51.9292 58.3072C48.6859 60.7779 44.9067 62.4506 40.8971 63.19C43.6602 67.8218 47.3859 71.806 51.8221 74.8733C52.5122 74.3991 53.1893 73.899 53.8421 73.3826C54.8675 72.5706 56.1735 72.1992 57.4727 72.3501C58.7719 72.501 59.958 73.1618 60.77 74.1872C61.5821 75.2126 61.9535 76.5186 61.8026 77.8178C61.6517 79.1171 60.9909 80.3032 59.9655 81.1152C58.1691 82.5361 56.2724 83.8256 54.2903 84.9733C53.5399 85.4067 52.6886 85.6349 51.8221 85.6349C50.9555 85.6349 50.1043 85.4067 49.3539 84.9733C40.6004 79.8734 33.7016 72.1145 29.6604 62.8246C25.134 61.6731 21.0019 59.3221 17.6995 56.0193C16.7746 55.0934 16.2555 53.838 16.2562 52.5293C16.257 51.2206 16.7776 49.9658 17.7035 49.041C18.6294 48.1161 19.8848 47.597 21.1935 47.5978C22.5022 47.5985 23.757 48.1191 24.6818 49.045C25.1583 49.5213 25.6643 49.9671 26.1968 50.3798C25.914 48.2943 25.7714 46.1922 25.7698 44.0876C25.7676 37.1747 28.5111 30.5441 33.3969 25.6537C38.2828 20.7633 44.9109 18.0136 51.8237 18.0093C66.058 18.0093 77.751 29.5902 77.8874 43.8278V43.8505C77.8874 43.9268 77.8971 44.0031 77.8971 44.0811C77.892 48.5551 76.1125 52.8443 72.9491 56.0081C69.7856 59.1718 65.4965 60.9517 61.0225 60.9573Z" fill="#FF6029"/>
</g>
<path d="M128.293 36.8823V48.1648H146.064L145.992 56.5275H128.293V75.4878H118.669V28.1592H149.452V36.8823H128.293Z" fill="#040E23"/>
<path d="M200.893 28.1592V75.4878H191.521V66.9809C191.521 61.0693 191.761 55.2178 192.242 49.4264L181.176 74.1541H172.633L162.143 49.5706C162.744 56.0589 163.032 61.8623 163.008 66.9809V75.4878H153.853V28.1592H162.36L177.211 63.4484L192.314 28.1592H200.893Z" fill="#040E23"/>
<path d="M253.183 28.1592V75.4878H243.811V66.9809C243.811 61.0693 244.051 55.2178 244.532 49.4264L233.466 74.1541H224.923L214.433 49.5706C215.034 56.0589 215.322 61.8623 215.298 66.9809V75.4878H206.143V28.1592H214.65L229.501 63.4484L244.604 28.1592H253.183Z" fill="#040E23"/>
<defs>
<clipPath id="clip0_727_114">
<rect width="103.647" height="103.647" fill="white"/>
</clipPath>
</defs>
</svg>
