<svg width="418" height="427" viewBox="0 0 418 427" fill="none" xmlns="http://www.w3.org/2000/svg">
<g clip-path="url(#clip0_30764_12376)">
<path d="M168.8 1.66599C166.1 4.03265 165.833 4.06598 161.733 2.66599C160.133 2.09933 159.433 1.99933 158.7 2.26599C158.166 2.466 157.566 2.466 157.3 2.29932C156.466 1.76599 155.666 1.99933 155.333 2.83267C155.066 3.49933 154.8 3.66599 153.833 3.66599C153.2 3.66599 152.666 3.76599 152.666 3.89932C152.666 4.06598 152.533 4.366 152.4 4.59933C152.166 4.93265 151.766 4.83267 150.466 4.19934C149 3.43265 148.3 3.33267 144.066 3.19934L139.266 3.03265L138.366 4.03265C137.5 4.966 137.266 5.03265 133.5 5.33267C128.8 5.73267 127.4 6.29932 126.866 7.99933L126.5 9.16599L124.4 9.06598C121.5 8.89932 119.4 9.66599 117.2 11.6993C115.2 13.5327 113.866 13.7993 111.933 12.7993C111.1 12.366 110.366 12.2993 108.2 12.4993C106.733 12.6327 104.966 12.9326 104.3 13.2327C102.7 13.866 102.1 13.566 99.6332 10.966C98.5332 9.76599 97.4998 8.99933 97.0998 8.99933C96.2332 8.99933 94.9998 10.866 94.9998 12.166C94.9998 13.266 92.3998 18.1327 90.7665 20.066C90.0998 20.866 89.0998 21.7993 88.5332 22.1993C87.1332 23.1327 83.2665 24.6327 81.2665 24.9993C78.8998 25.466 76.7998 26.466 76.1332 27.466C75.5998 28.2993 75.5998 28.4326 76.1665 29.6327C76.8665 31.1993 76.5998 33.9993 75.6332 35.3993C74.5665 36.866 74.5332 37.9993 75.4665 39.8327C76.6665 42.1327 76.5998 43.5327 75.2665 45.366C74.6665 46.166 73.8665 47.2993 73.4998 47.866C72.4665 49.4993 68.0665 53.3327 66.3998 54.066C65.5665 54.4326 63.9332 54.866 62.7665 54.9993C61.5998 55.166 60.3998 55.466 60.1332 55.6993C59.8665 55.9326 58.8998 57.6327 58.0332 59.466C56.4332 62.8993 55.9665 63.4327 53.3665 65.3993C51.3332 66.9327 50.5332 68.5993 50.3998 71.666C50.2665 75.2327 50.1665 75.566 49.0332 75.766C48.4665 75.8993 47.7665 76.3993 47.2998 77.066C46.8998 77.666 46.1332 78.6327 45.5998 79.1993C45.0665 79.766 44.1332 81.5993 43.4665 83.366C42.0332 87.1993 40.9665 89.066 39.6332 90.0327C38.4665 90.866 37.7332 92.366 37.6332 94.0327C37.5332 95.7327 38.8332 98.5327 40.3332 99.966C41.4665 101.033 41.6665 101.466 41.7332 102.699C41.7998 105.066 41.6998 105.466 40.7665 106.166C39.5332 107.166 39.8998 108.566 41.8332 109.999C42.6665 110.633 43.3332 111.166 43.3332 111.233C43.3332 111.299 43.0998 111.699 42.8332 112.133C42.4332 112.766 42.3998 113.199 42.6998 114.733C43.0998 116.699 43.1332 116.599 41.5332 119.499C41.2332 120.033 40.9998 120.866 40.9998 121.333C40.9998 121.799 40.8332 122.699 40.6332 123.333C40.4665 123.966 40.2998 125.433 40.2998 126.566L40.3332 128.666L38.8998 129.533C34.5998 132.199 34.1998 134.166 37.3665 137.333L38.3998 138.366L38.1665 141.433C37.7332 147.199 37.7332 147.433 38.7665 148.766C39.4332 149.633 40.0332 150.033 40.9332 150.199C41.5998 150.333 42.7332 150.699 43.3998 151.066C44.5332 151.599 44.6665 151.833 44.6665 152.933C44.6665 154.799 44.9998 155.633 45.7998 155.866C46.6665 156.133 47.9998 157.299 47.9998 157.799C47.9998 157.999 48.3665 158.833 48.7998 159.666C49.2332 160.499 49.6665 161.566 49.7998 162.066C49.9665 162.866 50.1998 162.999 51.0998 162.999C51.9665 162.999 52.2998 163.199 52.7998 164.033C53.1332 164.599 53.7332 165.199 54.1665 165.399C55.1665 165.866 55.3998 166.433 54.9998 167.533C54.7998 167.999 54.6665 168.899 54.6665 169.566C54.6665 170.566 54.9998 171.099 57.1332 173.299C58.4665 174.699 59.7665 176.199 59.9998 176.599C60.1998 177.033 60.8998 177.599 61.4998 177.866C62.2665 178.166 62.7332 178.666 62.9665 179.433C63.4665 180.899 66.0665 183.366 68.4998 184.666C72.3332 186.699 74.6665 188.899 74.6665 190.433C74.6665 191.133 75.8665 192.066 76.5998 191.933C76.9998 191.866 77.6332 192.266 78.2665 192.899C78.8998 193.599 79.5998 193.999 80.1332 193.999C80.5998 193.999 81.5665 194.299 82.2998 194.699L83.6332 195.399L85.5665 194.499C86.6332 194.033 88.1665 193.199 88.9998 192.666C89.9998 192.033 91.1665 191.633 92.4998 191.499C93.7998 191.333 94.9332 190.966 95.7665 190.433C97.1998 189.433 98.9665 189.333 104 189.899C107.366 190.299 110.733 191.499 111.1 192.466C111.366 193.166 112.4 193.133 113.366 192.366C113.8 192.033 114.8 191.699 115.566 191.566C116.4 191.466 117.566 190.966 118.4 190.366C119.166 189.799 120.433 189.166 121.166 188.966C121.866 188.766 122.9 188.266 123.4 187.833C124.066 187.266 124.933 186.999 126.733 186.833C129.566 186.566 130.333 186.233 130.333 185.333C130.333 184.766 130.633 184.533 131.366 184.599C131.466 184.599 132.133 184.466 132.866 184.299C134.533 183.899 146.066 183.899 147.166 184.333C147.666 184.533 148 184.899 148 185.333C148 185.766 148.366 186.133 149.1 186.433C149.7 186.699 150.666 187.466 151.266 188.133C152.2 189.199 152.333 189.599 152.333 191.199C152.333 193.433 152.7 194.199 154.1 194.799C154.7 195.066 155.566 195.566 156.1 195.899C157 196.499 157.033 196.499 159.766 195.099L162.5 193.733L165.566 193.966L168.6 194.166L170.066 195.799C173.066 199.233 173.833 200.866 174.2 204.766C174.367 206.799 174.266 207.799 173.367 211.333C172.8 213.633 172.333 215.999 172.333 216.566C172.333 217.133 171.867 219.066 171.3 220.866C169.5 226.499 169.933 229.633 173.033 233.533C173.566 234.233 174.5 235.699 175.1 236.799C175.666 237.899 176.9 239.599 177.8 240.599C178.933 241.833 179.566 242.866 179.833 243.933C180.133 245.199 180.433 245.599 181.266 245.966C182 246.299 182.333 246.666 182.333 247.199C182.333 247.633 182.766 248.466 183.3 249.066C184.566 250.533 185.666 252.633 185.666 253.599C185.666 254.633 186.233 255.666 186.833 255.666C187.533 255.666 187.466 256.099 186.666 256.599C185.7 257.199 185.833 258.666 187.033 260.333C187.6 261.099 188.266 262.499 188.5 263.466C188.766 264.399 189.566 266.366 190.333 267.833C191.066 269.299 191.666 270.733 191.666 271.033C191.666 271.333 191.333 271.999 190.933 272.499C189.733 274.033 189.733 276.233 191 278.899C192.633 282.366 194 286.333 194 287.566C194 289.233 193.2 290.466 191.566 291.433C189.533 292.633 188.367 294.533 188.033 297.166C187.867 298.533 187.566 299.566 187.133 300.033C186.633 300.566 186.466 301.433 186.3 303.833C186.166 306.166 185.933 307.199 185.4 308.033C183.933 310.366 183.633 311.533 183.3 315.499C183.133 317.699 182.867 320.566 182.666 321.866C182.433 323.466 182.4 324.899 182.633 326.266C182.966 328.299 183.8 330.333 184.3 330.333C185.033 330.333 186.3 332.099 187.133 334.266C187.633 335.599 188.233 336.766 188.433 336.899C189.133 337.366 190.333 340.433 190.8 343.066C191.367 346.066 191.966 347.333 194.5 350.666C195.5 352.033 196.433 353.499 196.566 353.933C196.666 354.366 196.566 355.799 196.333 357.133C195.966 359.366 196 359.766 196.666 362.366C197.533 365.599 198 368.066 197.8 368.399C197.466 368.933 197.633 372.299 198 372.999C198.2 373.399 198.6 375.099 198.833 376.766C199.766 383.133 199.933 383.666 201.6 386.466C202.533 387.999 203.7 389.499 204.333 389.933C205.8 390.899 207.833 395.833 207.533 397.666C207.266 399.466 207.9 401.266 209.5 402.966C210.266 403.799 211.033 404.866 211.167 405.299C211.3 405.766 211.833 406.699 212.367 407.433C213.5 408.999 213.833 410.433 213.433 412.033C213.167 412.999 212.966 413.166 212.066 413.266C211.433 413.333 210.867 413.633 210.667 413.999C210.133 414.999 210.8 417.166 212.133 418.799C213.167 420.066 213.266 420.333 212.833 420.666C212.167 421.233 212.2 422.233 212.933 422.633C213.233 422.799 214.1 423.066 214.833 423.199C215.766 423.366 216.6 423.899 217.733 425.033C218.633 425.933 219.633 426.666 219.966 426.666C220.266 426.666 221.233 426.233 222.066 425.699C223.733 424.633 224.333 424.466 227.9 424.033C229.466 423.833 230.667 423.466 231.333 422.999C231.966 422.566 232.8 422.299 233.433 422.333C235.667 422.466 237.867 422.399 239.133 422.166C239.833 422.033 241.5 422.099 242.867 422.333L245.333 422.766L247.733 421.666C249.6 420.799 250.533 420.566 251.933 420.599C253.466 420.633 253.833 420.533 254.5 419.799C255.066 419.166 255.7 418.933 256.8 418.833C257.966 418.766 258.633 418.466 259.833 417.466C264.367 413.666 266.6 411.566 267.5 410.299C269.133 407.999 270.233 406.999 271.1 406.999C272 406.999 273.333 405.699 274.667 403.466C275.1 402.766 276.1 401.333 276.867 400.333C277.633 399.333 279.033 397.133 279.933 395.499C282.1 391.666 282.867 390.666 283.8 390.666C284.833 390.666 285.333 390.033 285.333 388.699C285.333 387.999 285.7 386.966 286.333 385.999C287.367 384.366 288.667 379.166 288.667 376.533C288.667 374.033 289.233 372.799 291.1 371.233C293.233 369.399 294.466 368.766 296.733 368.299C299.1 367.799 300 367.299 301.433 365.699C302.633 364.366 302.667 364.299 302.667 361.533C302.667 359.899 302.867 358.166 303.167 357.333C303.8 355.533 303.8 353.366 303.167 352.533C302.867 352.133 302.667 351.133 302.667 350.099C302.667 349.099 302.466 347.899 302.2 347.399C301.966 346.899 301.667 345.833 301.566 344.999C301.433 343.933 301.133 343.366 300.533 342.899C298.6 341.499 300 338.899 302.966 338.333C305.367 337.899 306.133 337.333 306.6 335.766C306.867 334.799 307.7 333.833 309.667 332.033C311.167 330.699 312.967 328.799 313.7 327.833C315.4 325.566 317.133 324.399 319.9 323.633C322.533 322.899 323.967 321.966 326.467 319.333C328.133 317.566 328.333 317.233 328.333 315.933C328.333 314.599 328.5 314.299 330.2 312.666C333.633 309.266 333.4 310.366 333.5 298.833C333.6 290.299 333.7 288.533 334.133 287.933C334.9 286.866 334.8 285.433 333.933 284.633C333.5 284.266 332.3 283.299 331.267 282.466C329.667 281.233 329.267 280.699 328.833 279.266C328.567 278.333 328.333 277.033 328.333 276.433C328.333 275.799 328.033 274.733 327.7 274.066C327.3 273.266 326.967 271.699 326.833 269.766C326.6 266.799 326.633 266.633 327.5 265.133C328.333 263.699 328.367 263.466 328 262.266C327.8 261.533 327.033 260.299 326.3 259.499C324.8 257.866 324.7 257.199 325.767 255.633C326.7 254.233 327.767 253.666 329.567 253.666C331.1 253.666 331.333 253.399 331.067 251.666C330.867 250.299 330.233 249.466 329.167 249.199L328.367 248.999L329.167 247.566C329.633 246.799 330 245.633 330 244.999C330 243.099 330.567 241.599 331.8 240.366C332.433 239.699 333.2 238.599 333.5 237.866C333.8 237.166 334.3 236.533 334.633 236.433C335.433 236.233 337.5 233.699 337.767 232.599C337.9 232.099 339.667 229.933 341.767 227.766C343.867 225.599 346 223.166 346.567 222.333C348.067 220.166 355.167 213.066 357.333 211.566C358.333 210.866 360.133 209.666 361.333 208.899C363.233 207.666 363.633 207.233 364.567 205.266C365.467 203.433 366.133 202.633 368.3 200.833C371.2 198.433 372.667 196.399 373.3 193.866C373.833 191.733 374.367 190.699 376 188.833C377.767 186.799 378.267 185.733 378.633 183.433C379.1 180.299 382.1 173.833 384.933 169.833C386.767 167.266 387.4 165.466 387.5 162.833C387.567 161.566 387.833 159.799 388.167 158.933C388.7 157.433 388.7 157.333 388.033 155.833C387.633 154.966 387.333 153.833 387.333 153.333C387.333 152.333 386.433 151.333 385.5 151.333C385.167 151.333 384.2 151.766 383.367 152.266C380.933 153.733 378.133 154.666 376.1 154.666C375.1 154.666 373.967 154.833 373.567 155.066C373.167 155.299 371.733 155.566 370.367 155.699C368.233 155.866 367.8 155.999 367.267 156.766C366.367 158.033 364.7 158.466 362.633 158.033C361.067 157.699 360.633 157.766 357.233 158.833C351.6 160.633 350.567 160.399 349.5 157.033C348.7 154.599 348 153.933 346.233 154.066C344.933 154.166 344.833 154.099 344.733 153.233C344.633 152.433 344.733 152.333 345.633 152.333C347 152.333 348.167 150.899 347.6 149.866C347.367 149.499 347.133 148.566 347.033 147.866C346.867 146.866 346.6 146.433 345.9 146.033C345.367 145.733 344.333 144.399 343.5 142.999C341.6 139.766 341.6 139.766 339.9 139.299C337.467 138.666 337.033 138.399 336.433 137.099C335.7 135.599 330.833 131.533 327.1 129.299C326.133 128.766 326 128.499 326 127.233C326 126.466 325.8 124.999 325.533 123.999C325.3 122.999 324.833 121.033 324.5 119.666C324.2 118.299 323.467 116.199 322.9 114.999C322 113.166 321.667 112.799 320.9 112.733C320.2 112.633 319.867 112.366 319.6 111.633C319.367 110.999 318.967 110.599 318.4 110.466C317.9 110.366 317.333 110.233 317.1 110.166C316.867 110.099 316.3 109.233 315.8 108.266C315 106.699 314.9 106.066 314.8 102.333C314.667 97.7327 314.3 96.3327 312.267 92.166C310.533 88.6993 309.567 87.4327 308.433 87.166C305.867 86.5993 304.7 83.9327 305.7 81.066C306.133 79.7993 305.7 78.8327 304.533 78.5327C303.9 78.366 303.633 78.0327 303.466 77.066C303.167 75.466 301.167 71.5327 299.767 69.866C299.167 69.1327 298.667 68.3327 298.667 68.0993C298.667 67.8327 297.933 66.8993 297 65.966C295.333 64.2993 295.333 64.2993 295.333 62.1327C295.333 59.966 295.333 59.9327 293.767 58.3993C291.266 55.966 289.533 53.3993 288.167 50.3327C287.066 47.8327 286.967 47.366 287.3 46.466C287.633 45.4993 287.533 45.066 285.867 41.5327L284.033 37.666L285.6 37.6327L287.167 37.5993L285.667 37.166C284.833 36.9326 282.833 36.3327 281.167 35.8327C278.033 34.8993 277.766 34.8993 275.667 36.3327C275.4 36.4993 274.766 36.7993 274.266 36.9993C273.7 37.1993 273.167 37.7327 272.867 38.4326C272.566 39.1993 272.1 39.666 271.5 39.7993C270.533 40.0327 268 39.766 266.667 39.266C266.2 39.0993 265.066 38.8327 264.1 38.666C263.167 38.4993 261.8 37.9993 261.1 37.5327C260.3 36.9993 258.8 36.5327 257 36.1993C255.433 35.9326 253.9 35.6327 253.6 35.4993C253.233 35.366 252.833 35.5327 252.433 35.966C252.133 36.366 251.733 36.666 251.633 36.666C251.5 36.666 250.933 35.9326 250.367 34.9993C249.167 33.066 249.266 33.0993 241.433 32.466C239.633 32.3327 239.3 32.1327 239.5 31.2327C239.766 30.066 238.266 28.666 236.733 28.666C236.333 28.666 235.8 28.1993 235.367 27.4993C234.367 25.7993 232.766 25.9326 230.9 27.7993C230.5 28.1993 229.066 28.8993 227.766 29.266C224.9 30.1327 224 31.0993 224 33.1327C224.033 33.866 224.233 34.866 224.5 35.3327C225.233 36.5993 225.133 39.066 224.3 40.1327C223.266 41.4326 221.133 42.4326 219.9 42.1993C219.333 42.0993 217.933 41.2327 216.733 40.3327C214.667 38.7327 214.5 38.666 212.433 38.666C210.933 38.666 209.667 38.4326 208.233 37.866C207.1 37.3993 205.766 36.9326 205.266 36.8327C203.6 36.3993 202 34.366 201.2 31.5327C200.7 29.7993 199.766 29.3327 196.233 29.066C193.666 28.8993 193.433 28.8327 192.466 27.766C191.233 26.4326 190.233 26.1327 185.367 25.666C181.367 25.266 180.867 25.066 180.367 23.6327C180.033 22.6993 179.9 22.5993 178.933 22.7327C176.766 23.066 174.266 20.566 175.233 19.0327C175.4 18.7327 176.133 18.1993 176.833 17.8327C177.533 17.466 178.2 16.9326 178.266 16.666C178.367 16.3993 178.867 15.666 179.367 15.066C180.733 13.5327 180.666 12.266 179.133 10.7327C178.466 10.066 177.8 9.09933 177.633 8.59933C177.3 7.366 177.833 5.63266 178.833 4.66599C179.8 3.76599 179.966 2.33267 179.1 2.33267C178.8 2.33267 178.133 2.69934 177.666 3.16599L176.766 4.03265L175.5 2.59933C172.666 -0.567352 171.533 -0.734009 168.8 1.66599ZM172.766 0.699341C173.166 0.899323 174.2 1.83267 175.066 2.79932L176.6 4.49933L177.566 3.56598C179.4 1.866 180 2.69934 178.333 4.66599C176.6 6.69934 176.633 9.13266 178.367 10.3993C179.633 11.3327 180.2 13.1993 179.5 14.166C179.2 14.5327 178.633 15.3993 178.166 16.066C177.7 16.766 177.133 17.3327 176.867 17.3327C176.633 17.3327 176.033 17.6327 175.533 18.0327C174.333 18.9993 174.333 20.766 175.533 21.766C176.033 22.166 176.766 22.8327 177.233 23.2327C178.033 23.9993 178.533 24.2327 178.2 23.6993C178 23.366 179.3 22.9326 179.733 23.1993C179.867 23.2993 180 23.566 180 23.7993C180 24.0327 180.367 24.5327 180.766 24.966C181.433 25.566 182.3 25.766 185.867 26.166C188.233 26.4326 190.3 26.666 190.433 26.666C190.6 26.666 191.3 27.266 192.033 27.9993C193.166 29.166 193.566 29.3327 194.833 29.3327C196.566 29.3327 199.666 29.9326 200.233 30.3993C200.433 30.566 200.733 31.1993 200.867 31.766C201.167 33.266 202.133 35.0327 203.1 35.9326C204.5 37.2327 208.833 38.7327 211.867 38.966C214.367 39.166 214.7 39.266 216.367 40.5327C219.533 42.966 220.566 43.166 222.833 41.8993C225.333 40.4993 226.133 37.6327 224.8 34.9326C224.133 33.6327 224.233 31.8993 225 31.066C225.367 30.6993 226.733 30.0327 228.033 29.666C229.6 29.1993 230.733 28.6327 231.3 27.9993C232.833 26.366 234.733 26.2993 235.133 27.8327C235.3 28.4326 235.7 28.7327 236.766 29.0327C238.633 29.5327 239 29.866 239 31.166C239 31.766 239.2 32.3993 239.433 32.566C239.8 32.8993 243.7 33.3327 247.033 33.4326C248.8 33.4993 249.466 33.966 250.367 35.7327C251.066 37.066 251.833 37.3327 252.5 36.466C252.867 35.966 253.133 35.966 256.2 36.4993C258.133 36.8327 260.266 37.466 261.333 37.9993C263.3 38.9993 268.467 40.366 270.266 40.3327C271.766 40.3327 272.467 39.8993 273.266 38.566C273.667 37.866 274.3 37.3327 274.867 37.1993C275.4 37.066 276.167 36.6327 276.566 36.266C276.967 35.8993 277.633 35.5993 278.066 35.5993C279.233 35.5993 283.667 36.9993 283.667 37.366C283.667 37.5327 284.467 39.466 285.467 41.6327C286.633 44.266 287.167 45.7327 286.967 46.0327C286.4 46.9326 286.667 48.1327 288.133 51.1993C289.6 54.266 291.3 56.6327 293.767 59.0327C294.933 60.166 295 60.3327 295 62.266C295 64.266 295.033 64.366 296.667 66.166C297.566 67.166 298.333 68.1327 298.333 68.2993C298.333 68.4327 298.8 69.1327 299.333 69.866C299.9 70.566 300.7 71.7993 301.133 72.6327C301.566 73.466 302.167 74.5993 302.466 75.166C302.767 75.6993 303 76.5327 303 76.966C303 77.866 303.867 78.9993 304.533 78.9993C305.167 78.9993 305.633 80.066 305.3 80.8327C305.167 81.1993 305.033 82.266 305.033 83.2327C305 84.7327 305.167 85.1327 306.033 86.1327C306.633 86.8327 307.466 87.3993 308.133 87.4993C309.3 87.7327 310.033 88.7327 312.1 92.8327C313.867 96.3993 314.333 98.3327 314.333 102.199C314.333 107.299 315.6 110.233 318.1 110.833C318.667 110.999 319 111.299 319 111.666C319 112.399 319.6 112.899 320.667 113.066C321.333 113.133 321.733 113.633 322.567 115.333C323.133 116.533 323.8 118.333 324.033 119.333C324.233 120.333 324.7 122.333 325.067 123.766C325.4 125.199 325.6 126.666 325.5 126.966C325.2 127.966 325.9 129.266 327.067 129.866C328.267 130.499 331.533 132.799 333.967 134.766C334.8 135.433 335.8 136.633 336.167 137.433C336.833 138.833 337.4 139.166 340.367 139.799C341.033 139.933 341.633 140.666 343 142.999C344.1 144.866 345.067 146.166 345.633 146.433C346.267 146.733 346.533 147.133 346.6 147.999C346.667 148.633 346.867 149.366 347.067 149.566C347.667 150.299 347.067 151.633 346.067 151.866C344.467 152.199 344.333 152.299 344.333 153.099C344.333 154.199 345.067 154.733 346.133 154.466C347.533 154.133 348.467 154.999 349.167 157.333C349.5 158.466 350.1 159.599 350.467 159.866C351.533 160.599 353.567 160.433 357.167 159.299C360.033 158.399 360.733 158.299 362.733 158.499C365.3 158.766 366.667 158.399 367.467 157.199C367.867 156.566 368.367 156.399 370.1 156.233C371.267 156.133 372.867 155.799 373.633 155.466C374.433 155.166 375.433 154.999 376 155.099C376.533 155.233 377.767 155.066 378.733 154.799C380.7 154.199 384.167 152.533 384.5 151.999C384.8 151.499 385.867 151.599 386.467 152.199C386.767 152.466 387 153.199 387 153.799C387 154.399 387.233 155.166 387.5 155.533C388.133 156.366 388.133 158.033 387.5 159.566C387.233 160.199 387 161.666 387 162.833C387 165.166 386.6 166.633 385.433 168.333C385 168.966 384.3 170.033 383.9 170.666C381.5 174.233 378.367 181.233 378.1 183.499C377.867 185.566 377.267 186.766 375.667 188.533C374.1 190.233 373.433 191.533 372.8 193.966C372.133 196.566 371.1 197.933 368 200.533C365.867 202.333 365.133 203.166 364.367 204.833C363.333 206.966 362.2 208.099 359.333 209.733C355.8 211.766 347.967 219.266 345.8 222.733C345.3 223.533 343.333 225.699 341.433 227.599C339.5 229.499 337.733 231.566 337.433 232.233C336.8 233.766 335.067 235.933 334.3 236.166C334 236.266 333.5 236.899 333.233 237.599C332.967 238.266 332.267 239.266 331.667 239.833C330.2 241.233 329.933 241.799 329.667 244.433C329.5 245.966 329.167 247.066 328.667 247.733C327.867 248.833 327.967 249.666 328.967 249.666C330 249.666 330.667 250.599 330.667 252.033V253.333H329.067C327.167 253.333 326.233 253.933 325.333 255.666C324.4 257.466 324.5 258.366 325.7 259.533C327.667 261.366 328.2 263.433 327.133 264.966C326.833 265.399 326.467 266.233 326.333 266.866C326 268.299 326.7 273.166 327.433 274.566C327.767 275.166 328 276.099 328 276.666C328 279.766 329.467 282.099 332.733 284.199C334.267 285.199 334.6 286.233 333.8 287.699C333.267 288.699 333.167 289.899 333.133 298.766C333.067 309.999 333.3 309.066 330 312.299C328.233 314.033 327.5 315.266 327.7 316.199C327.867 317.166 327.433 317.866 325.467 319.766C323.133 321.966 321.867 322.766 320 323.166C318.133 323.566 315.767 324.899 314.6 326.233C314 326.933 311.9 329.066 309.967 331.033C307.467 333.499 306.333 334.866 306.167 335.633C305.9 336.833 305.033 337.499 303.333 337.833C301.367 338.199 300.466 338.666 299.9 339.633C299.066 341.066 299.167 342.533 300.167 343.199C300.767 343.599 301 344.033 301 344.799C301 345.366 301.3 346.499 301.667 347.299C302.066 348.133 302.333 349.466 302.333 350.466C302.333 351.466 302.533 352.466 302.833 352.866C303.466 353.699 303.466 354.833 302.833 356.866C302.533 357.799 302.3 359.633 302.333 361.099C302.333 362.733 302.167 364.033 301.867 364.599C301.167 365.966 299.033 367.299 296.7 367.866C294.133 368.433 293.267 368.899 290.933 370.799C288.867 372.466 288.333 373.566 288.333 376.066C288.333 378.766 287.066 383.999 285.967 385.799C285.4 386.699 284.933 387.899 284.933 388.466C284.9 389.766 284.467 390.333 283.533 390.333C282.533 390.333 281.667 391.333 280.167 394.233C279.5 395.566 278.266 397.599 277.467 398.733C276.667 399.899 275.233 401.966 274.3 403.399C272.6 405.899 272.133 406.266 270.167 406.866C269.5 407.066 268.8 407.733 268.1 408.833C266.667 410.999 264.033 413.633 261.1 415.866C259.766 416.866 258.6 417.833 258.5 417.999C258.4 418.199 257.667 418.333 256.9 418.333C255.867 418.333 255.3 418.566 254.6 419.233C253.8 419.999 253.3 420.166 251.733 420.199C250.367 420.233 249.2 420.566 247.566 421.333C245.367 422.399 245.233 422.399 243.367 421.999C242.233 421.766 240.633 421.699 239.466 421.799C237.5 422.033 235.566 422.066 233.3 421.933C232.5 421.899 231.8 422.099 231.167 422.599C230.667 422.999 229.867 423.333 229.367 423.333C227.433 423.333 223.433 424.433 221.9 425.366C219.966 426.566 219.4 426.433 217.933 424.633C217.1 423.599 216.466 423.233 214.933 422.799C212.667 422.133 212.4 421.866 213.2 420.966C213.6 420.499 213.7 420.166 213.5 419.866C213.3 419.633 212.667 418.766 212.066 417.966C211.167 416.799 211 416.266 211.066 415.166C211.167 413.966 211.266 413.833 212.1 413.799C213.433 413.766 213.7 413.333 213.9 411.133C214.066 409.299 214 409.033 212.933 407.499C212.3 406.566 211.6 405.366 211.367 404.799C211.133 404.199 210.5 403.299 209.933 402.799C208.433 401.366 208 400.266 208 397.933C207.966 394.999 206.266 390.833 204.633 389.733C204.033 389.299 203.367 388.699 203.2 388.399C203.066 388.099 202.367 386.866 201.667 385.666C200.4 383.533 199.8 381.199 199.166 375.999C199.033 374.999 198.7 373.633 198.433 372.999C198.066 372.133 198 371.199 198.166 369.466C198.333 367.499 198.233 366.566 197.5 363.833C196.7 360.866 196.633 360.233 196.833 357.033L197.066 353.499L195 350.666C192.266 346.899 191.766 345.866 191.033 342.399C190.266 338.866 189.733 337.399 188.8 336.499C188.4 336.133 187.766 334.899 187.333 333.766C186.8 332.299 186.2 331.333 185.166 330.399C182.8 328.233 182.7 327.399 183.633 315.999C184 311.566 184.266 310.599 185.5 308.733C186.266 307.566 186.433 306.833 186.633 304.233C186.833 301.733 187.033 300.899 187.6 300.166C188.066 299.599 188.333 298.766 188.333 297.999C188.333 295.399 189.833 292.766 191.933 291.699C195.266 289.999 195.1 286.599 191.333 278.566C190.1 275.966 190.1 274.399 191.3 272.699C192.3 271.333 192.2 270.699 190.533 267.399C189.733 265.799 188.966 263.866 188.833 263.099C188.733 262.333 188.166 261.133 187.633 260.466C186.166 258.633 186.033 257.699 187.1 256.833C188.2 255.966 188.233 255.733 187.166 255.333C186.566 255.099 186.333 254.766 186.333 254.166C186.333 253.099 185.1 250.599 183.7 248.866C183.133 248.166 182.666 247.233 182.666 246.799C182.666 246.199 182.4 245.966 181.6 245.733C180.7 245.499 180.466 245.266 180.3 244.299C180.066 242.799 179.5 241.799 178 240.133C177.333 239.399 176.333 238.066 175.833 237.133C175.3 236.233 174.233 234.566 173.433 233.433C172.633 232.299 171.6 230.433 171.1 229.266C170.133 226.833 170.166 226.033 171.6 221.333C172.133 219.599 172.7 217.266 172.833 216.166C172.966 215.066 173.433 212.666 173.9 210.866C175.533 204.499 174.5 199.966 170.367 195.599L168.466 193.566L165.233 193.466C162.033 193.399 161.966 193.399 159.466 194.733L156.933 196.066L155.7 195.199C155.033 194.733 154.3 194.333 154.1 194.333C153.3 194.333 152.666 192.833 152.666 190.933C152.666 189.266 152.533 188.866 151.6 187.799C151 187.133 150.033 186.366 149.433 186.099C148.733 185.833 148.333 185.433 148.333 184.999C148.333 184.633 148 184.166 147.6 183.966C146.5 183.366 136.833 183.133 133.866 183.633C130.066 184.266 130 184.299 130 184.999C130 185.833 129.033 186.333 127.433 186.333C125.533 186.366 123.7 186.866 122.9 187.599C122.5 187.966 121.6 188.433 120.933 188.599C120.266 188.766 119.066 189.366 118.266 189.933C117.466 190.466 116.2 191.033 115.433 191.166C114.666 191.266 113.666 191.666 113.2 192.033C112.166 192.833 112.033 192.833 111.033 191.866C109.6 190.533 107.066 189.733 102.7 189.333C98.1332 188.866 97.0998 188.999 95.6665 190.066C95.0332 190.533 93.8998 190.866 92.4332 191.066C91.0998 191.199 89.8332 191.599 89.2998 191.966C87.8665 193.033 84.3998 194.666 83.5998 194.666C83.1665 194.666 82.5665 194.433 82.2332 194.166C81.8665 193.933 81.0332 193.599 80.2998 193.499C79.3998 193.333 78.7998 192.966 78.2998 192.299C77.7665 191.566 77.3665 191.333 76.4998 191.333C75.4665 191.333 75.3332 191.233 74.9998 190.033C74.5665 188.366 72.0998 186.066 69.1332 184.566C66.5665 183.233 63.5332 180.366 63.1998 178.899C63.0332 178.233 62.6332 177.799 61.8332 177.466C61.1998 177.199 60.4998 176.666 60.2998 176.266C60.0998 175.833 58.7998 174.366 57.4665 172.966C55.4998 170.933 54.9998 170.199 54.9998 169.399C54.9998 168.233 55.7332 167.333 56.6998 167.333C57.0332 167.333 57.3332 167.199 57.3332 167.033C57.3332 166.899 56.9665 166.833 56.4998 166.933C55.9665 167.033 55.6665 166.933 55.6665 166.666C55.6665 165.899 52.0998 162.733 51.1332 162.599C50.3998 162.533 50.1332 162.266 49.9665 161.499C49.8332 160.933 49.2332 159.533 48.6332 158.333C47.7998 156.733 47.2332 156.033 46.4332 155.699C45.4332 155.266 45.3332 155.066 45.1332 153.333C44.9332 151.566 44.8332 151.366 43.6998 150.733C43.0332 150.366 41.9332 149.966 41.2332 149.833C40.4665 149.666 39.6998 149.233 39.1332 148.566L38.2998 147.566L38.5332 142.833L38.7665 138.066L37.3998 136.733C34.8332 134.199 35.0332 132.666 38.3332 130.499C40.6665 128.933 40.8332 128.699 40.6998 126.799C40.5665 124.966 41.6998 119.899 42.5665 118.433C43.2998 117.166 43.3665 116.799 43.1332 114.733C42.9998 113.166 43.0332 112.333 43.2998 112.199C44.0332 111.733 43.6332 110.833 42.2998 109.899C41.5665 109.399 40.8332 108.599 40.6665 108.133C40.3665 107.399 40.4665 107.099 41.3665 106.099C42.3332 104.966 42.3998 104.799 42.1665 103.033C41.9332 100.999 41.3665 99.8993 40.2998 99.3327C39.6332 98.966 38.1665 96.066 38.4998 95.7327C38.5998 95.6327 38.4998 95.366 38.2998 95.1327C37.7998 94.5327 38.2998 91.6993 38.9998 91.0327C39.3332 90.7327 39.9665 90.2327 40.4332 89.9327C41.2998 89.3327 43.1998 85.6993 44.3332 82.3327C45.1998 79.8993 47.2998 77.2327 49.2665 76.166L50.4998 75.4993L50.6998 72.4993C50.9332 68.9327 51.4998 67.4993 53.1332 66.166C53.7998 65.5993 54.8665 64.7327 55.5332 64.1993C56.3332 63.5327 57.2332 62.1327 58.3665 59.8327C59.2665 57.9327 60.1998 56.266 60.4332 56.0327C60.6998 55.8327 61.9998 55.5327 63.3332 55.3327C64.8665 55.0993 66.3665 54.666 67.3332 54.0993C69.1998 52.9993 73.0332 49.3327 74.3332 47.3327C74.8665 46.4993 75.6332 45.4326 76.0332 44.966C76.9665 43.7993 76.9332 41.8327 75.9998 39.9993C75.0998 38.2327 75.0665 36.966 75.8665 35.766C76.8998 34.2327 77.3665 31.3993 76.7998 30.0327C76.5332 29.4326 76.3332 28.6327 76.3332 28.3327C76.3332 27.4326 77.8665 26.3993 79.9665 25.8327C87.8332 23.7327 90.5665 21.9993 92.9998 17.4993C93.5998 16.3993 94.3332 15.166 94.5998 14.7327C94.8665 14.3327 95.2332 13.266 95.3665 12.4326C95.6998 10.766 96.4665 9.33267 97.0332 9.33267C97.2665 9.33267 98.3332 10.2993 99.4665 11.466C101.8 13.9326 102.7 14.266 104.733 13.566C106.866 12.7993 110.633 12.5993 111.666 13.166C112.133 13.4326 113.233 13.6327 114.1 13.666C115.533 13.666 115.866 13.5327 117.3 12.166C119.5 10.0993 120.966 9.53265 124.166 9.53265L126.833 9.49933L127.166 8.466C127.366 7.89932 127.7 7.19934 127.933 6.93265C128.433 6.33267 132.166 5.66599 135.166 5.66599C137.266 5.66599 137.466 5.59933 138.4 4.59933L139.4 3.49933L144.133 3.63266C148.5 3.73267 148.966 3.79932 150.433 4.59933L152.066 5.49933L152.566 4.73267C152.933 4.23267 153.4 3.99933 154.2 3.99933C155.133 3.99933 155.4 3.83267 155.666 3.16599C156.033 2.23267 156.1 2.19934 157.033 2.69934C157.5 2.93265 158 2.93265 158.7 2.69934C159.466 2.43265 160.066 2.49933 161.6 3.03265C165.867 4.53265 165.433 4.49933 167.033 3.49933C167.833 2.99933 169.066 2.06598 169.766 1.466C171.1 0.265991 171.633 0.13266 172.766 0.699341Z" fill="#FF9470" fill-opacity="0.5"/>
<path d="M55.9997 48.0999C54.8997 48.6666 54.7997 50.4332 55.8663 50.5999C56.833 50.7332 58.3664 48.4332 57.633 47.9666C57.033 47.5999 56.9997 47.5999 55.9997 48.0999ZM56.933 49.3332C56.133 50.4332 55.733 50.5666 55.4663 49.8332C55.1663 49.1332 55.933 48.3332 56.8997 48.3332H57.6997L56.933 49.3332Z" fill="#FF9470" fill-opacity="0.5"/>
<path d="M53.3333 52.2331C52.2667 53.9331 52.1 54.9665 52.7333 55.5998C53.4333 56.2998 54.5667 56.0331 55.4667 54.9665C56.8 53.3665 56.5667 51.8998 54.7667 50.8665C54.5 50.7331 54 51.2331 53.3333 52.2331ZM55.4 51.8998C56.2333 52.6665 56.1333 53.7665 55.1333 54.7998C54.1333 55.7665 53.6 55.8665 53 55.1998C52.7 54.7998 52.7667 54.3665 53.4 53.0331C54.2333 51.1998 54.4667 51.0665 55.4 51.8998Z" fill="#FF9470" fill-opacity="0.5"/>
<path d="M34.3327 51.6655C33.966 52.0322 33.666 52.5989 33.666 52.8989C33.6993 53.4655 33.6993 53.4655 33.9993 52.9322C34.1993 52.6322 34.5993 52.4655 34.8993 52.5322C35.7327 52.7322 36.466 52.1655 36.2327 51.5322C35.9327 50.7989 35.1327 50.8655 34.3327 51.6655ZM35.8327 52.0322C35.566 52.4322 34.666 52.4322 34.666 52.0322C34.666 51.6655 35.3993 51.3655 35.766 51.5655C35.8993 51.6322 35.9327 51.8655 35.8327 52.0322Z" fill="#FF9470" fill-opacity="0.5"/>
<path d="M41.933 52C40.633 52.2333 39.333 53.1667 39.333 53.8333C39.333 54.3667 41.0997 56 41.6997 56C42.333 56 43.8663 54.4 44.1663 53.4C44.3663 52.7 43.8663 51.6 43.3663 51.7C43.2663 51.7333 42.5997 51.8667 41.933 52ZM43.733 53.1667C43.6663 53.5333 43.1663 54.2667 42.633 54.8333L41.6663 55.8L40.6663 54.8333L39.633 53.8333L40.533 53.0667C41.6997 52.0667 43.8997 52.1333 43.733 53.1667Z" fill="#FF9470" fill-opacity="0.5"/>
<path d="M45.3993 54.7319C44.7993 55.3319 44.9327 56.5986 45.666 57.3319C46.866 58.5319 48.3327 57.9986 48.3327 56.3319C48.3327 54.7652 46.3993 53.7319 45.3993 54.7319ZM47.466 55.2986C48.666 56.5986 47.2993 58.3319 46.0327 57.1986C45.2327 56.4986 45.1327 55.6652 45.7327 55.0652C46.2993 54.4986 46.7993 54.5652 47.466 55.2986Z" fill="#FF9470" fill-opacity="0.5"/>
<path d="M395.834 123.333C395.934 123.499 396.201 123.666 396.367 123.666C396.567 123.666 396.601 123.499 396.501 123.333C396.401 123.133 396.134 122.999 395.967 122.999C395.767 122.999 395.734 123.133 395.834 123.333Z" fill="#FF9470" fill-opacity="0.5"/>
<path d="M0.233264 123.9C-0.400069 124.533 0.566598 126 1.59993 126C3.1666 125.967 3.29993 124.733 1.79993 124.033C0.833264 123.6 0.533264 123.567 0.233264 123.9ZM1.79993 124.533C2.39993 124.767 2.53326 125.667 1.9666 125.667C1.39993 125.667 0.333264 125 0.333264 124.667C0.333264 124.3 1.03326 124.233 1.79993 124.533Z" fill="#FF9470" fill-opacity="0.5"/>
<path d="M2.43268 130.9C1.89935 131.266 1.66602 131.766 1.66602 132.5C1.66602 134.133 2.33268 134.5 3.69935 133.566C4.99935 132.7 5.29935 131.666 4.49935 130.866C3.83268 130.2 3.39935 130.2 2.43268 130.9ZM4.09935 131.166C4.39935 131.433 4.53268 131.933 4.43268 132.3C4.23268 133.033 2.89935 133.833 2.36602 133.533C1.73268 133.133 1.96602 131.733 2.73268 131.2C3.63268 130.566 3.49935 130.566 4.09935 131.166Z" fill="#FF9470" fill-opacity="0.5"/>
<path d="M167.434 198.166C165.701 198.9 165.501 201.4 167.167 201.8C168.267 202.066 168.934 201.733 169.501 200.633C170.101 199.5 170.134 198.6 169.601 198.066C169.101 197.566 168.767 197.566 167.434 198.166ZM169.534 198.466C169.634 198.7 169.467 199.466 169.201 200.133C168.734 201.266 168.567 201.366 167.601 201.266C166.634 201.166 166.501 201.066 166.501 200.166C166.501 199.366 166.734 199.066 167.667 198.6C169.067 197.866 169.301 197.866 169.534 198.466Z" fill="#FF9470" fill-opacity="0.5"/>
<path d="M130.233 240.233C129.8 240.667 130 241.3 130.7 241.667C131.566 242.133 133 241.833 133 241.167C133 240.333 130.833 239.6 130.233 240.233ZM132.2 240.8C132.766 241.233 132.766 241.3 132.266 241.5C131.6 241.767 130.233 241.1 130.5 240.633C130.8 240.2 131.433 240.267 132.2 240.8Z" fill="#FF9470" fill-opacity="0.5"/>
<path d="M326 257.165C326 257.965 326.733 259.332 327.2 259.332C327.867 259.332 328.033 258.832 327.633 257.699C327.267 256.632 326 256.199 326 257.165ZM327.133 257.532C327.233 257.832 327.333 258.299 327.333 258.599C327.3 258.999 327.167 258.932 326.833 258.332C326.567 257.865 326.367 257.399 326.333 257.232C326.333 256.799 326.933 256.999 327.133 257.532Z" fill="#FF9470" fill-opacity="0.5"/>
<path d="M345.466 289.832C345.2 290.532 345.533 291.332 346.1 291.332C346.8 291.332 347.366 290.499 347.133 289.865C346.866 289.199 345.7 289.165 345.466 289.832ZM346.8 289.965C346.9 290.132 346.766 290.432 346.533 290.632C346 291.065 345.466 290.565 345.833 289.999C346.1 289.599 346.566 289.565 346.8 289.965Z" fill="#FF9470" fill-opacity="0.5"/>
<path d="M376.3 292.932C375.667 293.199 373.667 295.465 373.667 295.899C373.667 296.099 373.967 296.499 374.333 296.832C374.7 297.165 375 297.699 375 297.999C375 298.732 372.933 300.665 371.233 301.499C370.033 302.065 369.8 302.365 369.633 303.432C369.533 304.099 369.1 305.032 368.733 305.432C368.333 305.865 368 306.565 368 306.965C368 307.632 367.867 307.699 367.167 307.532C366.033 307.232 365.033 307.832 364.6 309.065C364.3 309.899 364.133 310.032 363.467 309.865C362.633 309.632 362.567 309.699 362.167 311.432C362.033 312.165 361.633 312.532 360.4 313.032C359.533 313.399 357.933 314.132 356.833 314.665C355.733 315.232 354.6 315.665 354.3 315.665C354.033 315.665 353.3 316.032 352.667 316.499C352.033 316.965 351.3 317.332 351 317.332C350.133 317.332 349.667 318.032 349.667 319.332C349.667 320.199 349.433 320.765 348.8 321.365C347.633 322.432 347.2 323.399 346.5 326.232C345.867 328.932 346 329.732 347.333 331.165C348.5 332.399 349.467 335.865 349.233 338.065C349.167 339.065 348.767 340.132 348.2 340.965C347.7 341.665 347.1 343.032 346.833 343.999C346.5 345.299 345.933 346.199 344.5 347.699C341.267 351.099 340.867 353.432 342.867 357.365C343.7 359.065 344.133 360.432 344.333 362.265C344.933 367.365 345.233 368.265 347.133 370.065C350 372.865 351.8 373.199 355.8 371.632C358 370.732 362.433 367.599 362.933 366.532C363.133 366.065 363.567 364.299 363.833 362.599C364.2 360.499 364.7 358.932 365.4 357.732C366.033 356.632 366.567 354.999 366.867 353.299C367.167 351.565 367.7 349.932 368.333 348.832C369.067 347.532 369.333 346.665 369.333 345.432C369.333 344.032 369.5 343.632 370.333 342.832C370.867 342.332 371.6 341.065 371.967 340.032C373.367 336.032 374 334.532 374.6 333.865C375.667 332.665 375.767 332.332 376 328.365C376.233 324.232 376.867 322.232 378.5 320.265C379.2 319.465 379.333 318.932 379.333 317.299C379.333 315.199 379.533 314.999 380.8 315.832C381.467 316.265 381.633 316.265 381.967 315.865C382.167 315.632 382.333 314.832 382.3 314.132C382.267 313.399 382.367 312.065 382.5 311.132C382.7 309.732 382.633 309.199 382 307.999C381.333 306.665 381.267 306.232 381.467 303.332C381.667 300.299 381.633 300.065 380.7 298.132C380.167 296.999 379.633 295.599 379.5 295.032C379.367 294.332 378.9 293.732 378.233 293.299C377.067 292.599 377.067 292.599 376.3 292.932ZM378.433 293.899C378.7 294.232 379.1 295.099 379.3 295.832C379.5 296.565 379.967 297.599 380.333 298.165C380.9 299.032 381 299.732 381 303.065C381 306.399 381.1 307.199 381.733 308.499C382.4 309.865 382.433 310.132 382.033 311.665C381.8 312.565 381.7 313.765 381.833 314.299C382.1 315.532 381.567 315.899 380.467 315.165C379.3 314.399 379 314.765 379 316.932C379 318.565 378.833 319.065 377.833 320.465C376.367 322.532 375.767 324.699 375.6 328.665C375.433 331.932 375 333.299 373.7 334.465C373.3 334.832 373 335.432 373 335.799C373 336.199 372.633 337.299 372.167 338.265C371.7 339.265 371.333 340.265 371.333 340.499C371.333 340.732 370.8 341.565 370.167 342.332C369.533 343.099 368.967 343.899 368.967 344.099C368.933 344.332 368.9 345.165 368.867 345.999C368.833 346.999 368.5 347.932 367.9 348.865C367.3 349.765 366.833 351.132 366.5 352.965C366.2 354.732 365.667 356.332 365 357.499C364.3 358.699 363.833 360.232 363.467 362.365C363.167 364.099 362.8 365.832 362.633 366.232C362.3 367.132 358.767 369.799 356.467 370.865C354.3 371.899 351.9 372.332 350.533 371.965C348.933 371.532 346.1 368.865 345.667 367.399C345.467 366.732 345.1 364.632 344.867 362.799C344.5 360.132 344.133 358.899 343.2 357.099C341.267 353.399 341.633 351.399 344.833 347.965C346.1 346.565 346.8 345.465 347.167 344.265C347.433 343.299 348.067 341.932 348.5 341.232C349.733 339.432 350.033 337.299 349.467 335.032C348.8 332.365 348.4 331.499 347.467 330.632C346.867 330.065 346.667 329.532 346.667 328.465C346.667 326.165 347.833 322.999 349.2 321.532C350.1 320.565 350.367 320.065 350.233 319.399C350 318.199 350.267 317.665 351.167 317.665C351.567 317.665 352.1 317.432 352.333 317.165C352.567 316.899 353.5 316.432 354.433 316.165C355.367 315.899 356.333 315.465 356.633 315.232C356.933 314.965 358.067 314.432 359.167 314.032C361.5 313.165 362.667 312.199 362.667 311.099C362.667 310.465 362.833 310.332 363.633 310.332C364.467 310.332 364.667 310.132 365 309.199C365.433 307.899 366.1 307.499 367.033 307.999C367.867 308.465 368.333 308.165 368.333 307.165C368.333 306.732 368.7 305.965 369.133 305.432C369.567 304.932 370.033 303.999 370.167 303.399C370.333 302.499 370.667 302.165 371.8 301.699C373.233 301.065 375.667 298.665 375.667 297.865C375.667 297.599 375.4 297.165 375.067 296.932C373.967 296.132 373.967 295.732 375.033 294.532C376.2 293.199 377.567 292.932 378.433 293.899Z" fill="#FF9470" fill-opacity="0.5"/>
<path d="M415.466 340.132C414.366 340.632 413.533 342.132 413.733 343.365C413.9 344.532 414.5 344.465 416 343.132C417.9 341.432 418.266 340.665 417.466 340.099C416.766 339.565 416.766 339.565 415.466 340.132ZM417.666 340.599C417.666 341.099 414.966 343.665 414.466 343.665C414.033 343.665 413.966 343.465 414.166 342.732C414.566 341.032 415.266 340.332 416.5 340.332C417.133 340.332 417.666 340.465 417.666 340.599Z" fill="#FF9470" fill-opacity="0.5"/>
<path d="M403 345.933C401.7 347 403.1 348.333 404.834 347.667C405.8 347.3 406.1 346.467 405.467 345.833C404.8 345.167 403.9 345.2 403 345.933ZM405.167 346.5C405.167 347 404.9 347.2 404.1 347.267C403.2 347.367 403 347.267 403 346.7C403 346.067 403.667 345.7 404.667 345.8C404.934 345.833 405.167 346.133 405.167 346.5Z" fill="#FF9470" fill-opacity="0.5"/>
</g>
<defs>
<clipPath id="clip0_30764_12376">
<rect width="418" height="426.667" fill="white"/>
</clipPath>
</defs>
</svg>
