<svg xmlns="http://www.w3.org/2000/svg" width="28" height="22" viewBox="0 0 28 22" fill="none">
  <g clip-path="url(#clip0_33328_42850)">
    <path d="M0 0.5H28V21.5H0V0.5Z" fill="white"/>
    <path d="M0 0.5H28V6.8H0V0.5Z" fill="black"/>
    <path d="M0 15.2002H28V21.5002H0V15.2002Z" fill="#006600"/>
    <path d="M10.2463 17.2343L10.4825 17.3655L16.6119 6.73428C16.9662 6.65553 17.1631 6.31428 17.36 5.97303C17.4913 5.73678 18.0163 4.83115 18.2394 3.6499C17.6167 4.20324 17.0891 4.85503 16.6775 5.57928C16.4806 5.92053 16.2838 6.26178 16.3756 6.61615L10.2463 17.2343Z" fill="black" stroke="black" stroke-width="0.375"/>
    <path d="M10.2463 17.2343L10.4825 17.3655L16.6119 6.73428C16.9662 6.65553 17.1631 6.31428 17.36 5.97303C17.4913 5.73678 18.0163 4.83115 18.2394 3.6499C17.6167 4.20324 17.0891 4.85503 16.6775 5.57928C16.4806 5.92053 16.2838 6.26178 16.3756 6.61615L10.2463 17.2343Z" fill="white"/>
    <path d="M17.7537 17.2343L17.5175 17.3655L11.3881 6.73428C11.0338 6.65553 10.8369 6.31428 10.64 5.97303C10.5087 5.73678 9.98375 4.83115 9.76062 3.6499C10.3833 4.20324 10.9109 4.85503 11.3225 5.57928C11.5194 5.92053 11.7162 6.26178 11.6244 6.61615L17.7537 17.2343Z" fill="black" stroke="black" stroke-width="0.375"/>
    <path d="M17.7537 17.2343L17.5175 17.3655L11.3881 6.73428C11.0338 6.65553 10.8369 6.31428 10.64 5.97303C10.5087 5.73678 9.98375 4.83115 9.76062 3.6499C10.3833 4.20324 10.9109 4.85503 11.3225 5.57928C11.5194 5.92053 11.7162 6.26178 11.6244 6.61615L17.7537 17.2343Z" fill="white"/>
    <path d="M28.0219 7.8502H16.4937C16.1 6.8002 14.7875 4.7002 14 4.7002C13.2125 4.7002 11.9 6.8002 11.5062 7.8502H-0.00875092V14.1502H11.5062C11.9 15.2002 13.2125 17.3002 14 17.3002C14.7875 17.3002 16.1 15.2002 16.4937 14.1502H28.0219V7.8502Z" fill="#BB0000"/>
    <path d="M16.4938 14.1501C16.8875 13.1001 17.15 12.0501 17.15 11.0001C17.15 9.9501 16.8875 8.9001 16.4938 7.8501C16.1 8.9001 15.8375 9.9501 15.8375 11.0001C15.8375 12.0501 16.1 13.1001 16.4938 14.1501Z" fill="black"/>
    <path d="M11.5062 14.1501C11.1125 13.1001 10.85 12.0501 10.85 11.0001C10.85 9.9501 11.1125 8.9001 11.5062 7.8501C11.9 8.9001 12.1625 9.9501 12.1625 11.0001C12.1625 12.0501 11.9 13.1001 11.5062 14.1501Z" fill="black"/>
    <path d="M14 11.7874C14.2899 11.7874 14.525 11.4348 14.525 10.9999C14.525 10.565 14.2899 10.2124 14 10.2124C13.71 10.2124 13.475 10.565 13.475 10.9999C13.475 11.4348 13.71 11.7874 14 11.7874Z" fill="white"/>
    <path d="M14.1312 11.7612C14.1312 11.7612 14.6562 12.8112 14.6562 14.5175C14.6562 16.2237 14.1312 17.2737 14.1312 17.2737V11.7612Z" fill="white"/>
    <path d="M13.8688 10.2388C13.8688 10.2388 13.3438 9.18877 13.3438 7.48252C13.3438 5.77627 13.8688 4.72627 13.8688 4.72627V10.2388Z" fill="white"/>
    <path d="M13.8688 11.7612C13.8688 11.7612 13.3438 12.8112 13.3438 14.5175C13.3438 16.2237 13.8688 17.2737 13.8688 17.2737V11.7612Z" fill="white"/>
    <path d="M14.1312 10.2388C14.1312 10.2388 14.6562 9.18877 14.6562 7.48252C14.6562 5.77627 14.1312 4.72627 14.1312 4.72627V10.2388Z" fill="white"/>
  </g>
  <defs>
    <clipPath id="clip0_33328_42850">
      <rect y="0.5" width="28" height="21" rx="4" fill="white"/>
    </clipPath>
  </defs>
</svg>