<svg xmlns="http://www.w3.org/2000/svg" width="40" height="40" viewBox="0 0 40 40" fill="none">
  <path d="M20.0003 10.7573C18.3423 10.7591 16.7527 11.4185 15.5803 12.5909C14.4079 13.7633 13.7485 15.3529 13.7467 17.0109C13.747 18.2716 13.9135 19.5268 14.2419 20.744C15.796 20.6742 17.2674 20.0245 18.3658 18.923C18.408 18.8808 18.4525 18.8364 18.4947 18.7897C18.5773 18.6845 18.6703 18.5877 18.7722 18.5011C19.155 18.1792 19.6489 18.0207 20.1474 18.0597C20.646 18.0988 21.1092 18.3323 21.4371 18.7098L21.4571 18.732C21.8101 19.1615 22.2867 19.4718 22.8223 19.6207C23.3579 19.7696 23.9263 19.7499 24.4503 19.5643C24.9743 19.3786 25.4283 19.036 25.7506 18.5831C26.073 18.1302 26.2479 17.589 26.2517 17.0331C26.2511 17.0258 26.2511 17.0183 26.2517 17.0109C26.2499 15.3533 25.5908 13.764 24.4189 12.5917C23.247 11.4194 21.6579 10.7597 20.0003 10.7573Z" fill="#FF6029"/>
  <path d="M20 0C16.0443 2.43855e-08 12.1774 1.17304 8.88837 3.37076C5.59934 5.56849 3.03589 8.69219 1.52221 12.3468C0.00851846 16.0015 -0.387418 20.0229 0.384466 23.9026C1.15635 27.7823 3.06139 31.346 5.85866 34.1429C8.65593 36.9399 12.2198 38.8445 16.0996 39.616C19.9793 40.3874 24.0007 39.991 27.6552 38.4769C31.3097 36.9629 34.4331 34.3991 36.6305 31.1098C38.8278 27.8205 40.0004 23.9535 40 19.9978C39.9935 14.6956 37.8843 9.61254 34.1349 5.86357C30.3855 2.1146 25.3021 0.00587687 20 0ZM23.5532 23.5243C22.3103 23.5269 21.0929 23.1715 20.0466 22.5005C18.7946 23.4533 17.3365 24.0991 15.7895 24.386C16.8566 26.1737 18.2956 27.7111 20.0089 28.8941C20.2754 28.7097 20.5374 28.5188 20.7884 28.3189C20.9849 28.1642 21.21 28.0497 21.4508 27.982C21.6916 27.9143 21.9434 27.8947 22.1918 27.9242C22.4402 27.9538 22.6803 28.0321 22.8985 28.1545C23.1166 28.2768 23.3085 28.441 23.4632 28.6376C23.618 28.8341 23.7324 29.0592 23.8002 29.3C23.8679 29.5408 23.8875 29.7926 23.8579 30.041C23.8283 30.2894 23.7501 30.5295 23.6277 30.7477C23.5053 30.9658 23.3411 31.1577 23.1446 31.3125C22.4515 31.8612 21.7197 32.3592 20.9549 32.8026C20.6653 32.9698 20.3367 33.0578 20.0022 33.0578C19.6678 33.0578 19.3392 32.9698 19.0495 32.8026C15.6714 30.8339 13.0087 27.8398 11.4479 24.2549C9.69968 23.8101 8.10387 22.9017 6.82879 21.6256C6.4704 21.2687 6.26847 20.784 6.26743 20.2782C6.26691 20.0277 6.31573 19.7796 6.4111 19.5481C6.50646 19.3165 6.64651 19.1059 6.82324 18.9285C6.99997 18.751 7.20992 18.6101 7.4411 18.5138C7.67229 18.4175 7.92018 18.3676 8.17063 18.3671C8.67643 18.3661 9.16193 18.566 9.52033 18.9229C9.70339 19.1074 9.8985 19.2795 10.1044 19.4381C9.99551 18.6336 9.9406 17.8227 9.94005 17.0109C9.94063 14.343 11.0007 11.7845 12.8872 9.89806C14.7737 8.01158 17.3321 6.95151 20 6.95092C22.6486 6.95887 25.1877 8.00802 27.0695 9.87188C28.9512 11.7357 30.0245 14.2648 30.0577 16.9132C30.0577 16.942 30.0577 16.9709 30.0577 17.002C30.0577 18.7307 29.3715 20.3886 28.1498 21.6116C26.928 22.8346 25.2708 23.5225 23.5421 23.5243H23.5532Z" fill="#FF6029"/>
</svg>